<svg id="blockchain-services" xmlns="http://www.w3.org/2000/svg" viewBox="0 0 56 56"><defs><style>.cls-1{fill:#074d92;}.cls-2{fill:#053b70;}.cls-3{fill:#0a6ed1;}</style></defs><title>blockchain-services_circle</title><path class="cls-1" d="M28,6A22,22,0,1,1,6,28,22.025,22.025,0,0,1,28,6m0-2A24,24,0,1,0,52,28,24,24,0,0,0,28,4Z"/><polygon class="cls-2" points="35 33.603 35 35.995 32.853 37.215 32.853 39.228 36.75 37.014 36.75 32.609 35 33.603"/><polygon class="cls-2" points="25.443 25.176 23.221 26.438 21 25.176 21 22.772 19.25 21.777 19.25 26.194 23.221 28.451 27.193 26.194 27.193 21.777 25.443 22.772 25.443 25.176"/><polygon class="cls-2" points="21 33.603 19.25 32.609 19.25 37.014 23.159 39.235 23.159 37.222 21 35.995 21 33.603"/><polygon class="cls-2" points="27.997 23.893 30.212 25.283 31.86 24.347 27.997 21.777 27.997 23.893"/><path class="cls-3" d="M27.193,20.771V16.257L23.221,14,19.25,16.257v4.514l3.971,2.257ZM21,17.275l2.221-1.262,2.222,1.262v2.478l-2.222,1.262L21,19.753Z"/><polygon class="cls-3" points="27.193 27.2 25.443 28.195 25.443 30.584 23.221 31.846 21 30.584 21 28.195 19.25 27.2 19.25 31.602 23.221 33.859 27.193 31.602 27.193 27.2"/><path class="cls-3" d="M24.034,35.229v4.513L28.005,42l3.973-2.258V35.229l-3.973-2.257Zm6.194,1.019v2.476l-2.223,1.263-2.221-1.263V36.247l2.221-1.262Z"/><path class="cls-3" d="M32.779,24.831l-3.972,2.257V31.6l3.972,2.257L36.75,31.6V27.088ZM35,30.584l-2.221,1.262-2.222-1.262V28.106l2.222-1.262L35,28.106Z"/></svg>